<?xml version="1.0" encoding="UTF-8" standalone="no"?>
<!-- Created with Inkscape (http://www.inkscape.org/) -->

<svg
   width="183mm"
   height="55mm"
   viewBox="0 0 183 55"
   version="1.1"
   id="svg1"
   inkscape:version="1.3 (0e150ed, 2023-07-21)"
   sodipodi:docname="logo_2.svg"
   xmlns:inkscape="http://www.inkscape.org/namespaces/inkscape"
   xmlns:sodipodi="http://sodipodi.sourceforge.net/DTD/sodipodi-0.dtd"
   xmlns="http://www.w3.org/2000/svg"
   xmlns:svg="http://www.w3.org/2000/svg">
  <sodipodi:namedview
     id="namedview1"
     pagecolor="#ffffff"
     bordercolor="#000000"
     borderopacity="0.25"
     inkscape:showpageshadow="2"
     inkscape:pageopacity="0.0"
     inkscape:pagecheckerboard="0"
     inkscape:deskcolor="#d1d1d1"
     inkscape:document-units="mm"
     inkscape:zoom="0.80711364"
     inkscape:cx="382.22623"
     inkscape:cy="79.914397"
     inkscape:window-width="1536"
     inkscape:window-height="1212"
     inkscape:window-x="1016"
     inkscape:window-y="25"
     inkscape:window-maximized="0"
     inkscape:current-layer="g282" />
  <defs
     id="defs1">
    <linearGradient
       id="swatch4"
       inkscape:swatch="solid">
      <stop
         style="stop-color:#000000;stop-opacity:1;"
         offset="0"
         id="stop4" />
    </linearGradient>
    <rect
       x="98.656456"
       y="472.51251"
       width="563.38031"
       height="188.22614"
       id="rect4" />
    <linearGradient
       id="swatch3"
       inkscape:swatch="solid">
      <stop
         style="stop-color:#0a0000;stop-opacity:0.76892401;"
         offset="0"
         id="stop3" />
    </linearGradient>
  </defs>
  <g
     inkscape:label="Слой 1"
     inkscape:groupmode="layer"
     id="layer1">
    <rect
       style="fill:#0914dd;fill-opacity:1;stroke-width:0.29241"
       id="rect1-0-2"
       width="143.22189"
       height="7.132565"
       x="6.7877455"
       y="25.64467"
       inkscape:highlight-color="#000000" />
    <rect
       style="fill:#0914dd;fill-opacity:1;stroke-width:0.264583"
       id="rect1-0-2-6"
       width="117.25936"
       height="7.132565"
       x="46.597725"
       y="10.228792"
       inkscape:highlight-color="#000000" />
    <rect
       style="fill:#0914dd;fill-opacity:1;stroke-width:0.264583"
       id="rect1-0-2-3"
       width="117.25936"
       height="7.132565"
       x="41.013062"
       y="38.277733"
       inkscape:highlight-color="#000000" />
    <path
       sodipodi:type="star"
       style="fill:#0914dd;fill-opacity:1;stroke-width:0.264583"
       id="path3"
       inkscape:flatsided="true"
       sodipodi:sides="3"
       sodipodi:cx="168.89912"
       sodipodi:cy="87.017288"
       sodipodi:r1="7.0561152"
       sodipodi:r2="5.0916724"
       sodipodi:arg1="-0.0030977663"
       sodipodi:arg2="1.0440996"
       inkscape:rounded="0"
       inkscape:randomized="0"
       d="m 175.95521,86.99543 -10.5652,6.143533 -0.0379,-12.221491 z"
       inkscape:transform-center-x="0.99856022"
       inkscape:transform-center-y="1.6316187"
       transform="translate(-7.5397272,-45.238363)" />
    <path
       sodipodi:type="star"
       style="fill:#0914dd;fill-opacity:1;stroke-width:0.264583"
       id="path3-0"
       inkscape:flatsided="true"
       sodipodi:sides="3"
       sodipodi:cx="228.52737"
       sodipodi:cy="76.175789"
       sodipodi:r1="7.0561152"
       sodipodi:r2="5.0916724"
       sodipodi:arg1="-0.0030977663"
       sodipodi:arg2="1.0440996"
       inkscape:rounded="0"
       inkscape:randomized="0"
       d="m 235.58346,76.153931 -10.5652,6.143533 -0.0379,-12.221492 z"
       inkscape:transform-center-x="0.99856022"
       inkscape:transform-center-y="1.6316187"
       transform="translate(-75.297317,-47.263607)" />
    <path
       sodipodi:type="star"
       style="fill:#0914dd;fill-opacity:1;stroke-width:0.264583"
       id="path3-3"
       inkscape:flatsided="true"
       sodipodi:sides="3"
       sodipodi:cx="283.30548"
       sodipodi:cy="48.501434"
       sodipodi:r1="7.0561152"
       sodipodi:r2="5.0916724"
       sodipodi:arg1="-0.0030977663"
       sodipodi:arg2="1.0440996"
       inkscape:rounded="0"
       inkscape:randomized="0"
       d="m 290.36156,48.479576 -10.56519,6.143533 -0.0379,-12.221491 z"
       inkscape:transform-center-x="0.99856022"
       inkscape:transform-center-y="1.6316187"
       transform="translate(-116.30774,-35.092773)" />
    <rect
       style="fill:#0914dd;fill-opacity:1;stroke-width:0.119439"
       id="rect1-0-2-1-3-1"
       width="23.895674"
       height="7.132565"
       x="-26.206978"
       y="-46.997784"
       inkscape:highlight-color="#000000"
       transform="rotate(135.7)" />
    <rect
       style="fill:#0914dd;fill-opacity:1;stroke-width:0.110939"
       id="rect1-0-2-1-3-5"
       width="20.615242"
       height="7.132565"
       x="-60.049519"
       y="11.757719"
       inkscape:highlight-color="#000000"
       transform="rotate(-121.01)" />
    <g
       id="g282">
      <path
         id="text4"
         style="font-size:106.667px;font-family:'Gujarati MT';-inkscape-font-specification:'Gujarati MT';white-space:pre;fill:#dd0965"
         transform="matrix(0.245505 0 0 0.241437 20.1643 -100.406)"
         d="m 170.21897,569.82726 h -10.98961 l -7.60419,-21.61465 h -33.54178 l -7.60419,21.61465 h -10.46878 l 28.22926,-77.55233 h 13.75004 z m -21.7709,-30.46885 -13.59379,-38.07303 -13.64588,38.07303 z m 121.1983,-47.08348 -20.15631,77.55233 h -11.61462 l -16.30214,-64.3752 -15.93755,64.3752 h -11.3542 l -20.5209,-77.55233 h 10.57295 l 16.30214,64.47937 16.04171,-64.47937 h 10.46879 l 16.19796,65.10437 16.19797,-65.10437 z m 73.75022,77.55233 h -10.98962 l -7.60419,-21.61465 h -33.54177 l -7.60419,21.61465 h -10.46879 l 28.22926,-77.55233 h 13.75004 z m -21.77091,-30.46885 -13.59379,-38.07303 -13.64587,38.07303 z m 60.88562,30.46885 h -30.6251 v -7.91669 h 10.15628 V 500.19162 H 351.8862 v -7.91669 h 30.6251 v 7.91669 h -10.15628 v 61.71895 h 10.15628 z m 72.8648,-68.38563 h -27.70842 v 68.38563 h -10.31253 v -68.38563 h -27.70842 v -9.1667 h 65.72937 z m 66.14604,46.25014 q 0,4.53126 -2.13542,8.95836 -2.08334,4.4271 -5.88544,7.50003 -4.16668,3.33334 -9.73961,5.20835 -5.52085,1.875 -13.33338,1.875 -8.38544,0 -15.10421,-1.5625 -6.66669,-1.56251 -13.59379,-4.63544 v -12.9167 h 0.72917 q 5.88543,4.89585 13.59379,7.5521 7.70836,2.65626 14.47921,2.65626 9.58336,0 14.89588,-3.59376 5.3646,-3.59376 5.3646,-9.58336 0,-5.15627 -2.55209,-7.60419 -2.50001,-2.44793 -7.65627,-3.8021 -3.90627,-1.04167 -8.48961,-1.71875 -4.53127,-0.67709 -9.63545,-1.71876 -10.31253,-2.1875 -15.31255,-7.44794 -4.94793,-5.31251 -4.94793,-13.80212 0,-9.73962 8.22919,-15.93755 8.22919,-6.25002 20.88548,-6.25002 8.17711,0 15.00005,1.5625 6.82294,1.56251 12.08337,3.85418 v 12.18754 h -0.72917 q -4.4271,-3.75001 -11.6667,-6.19794 -7.18752,-2.50001 -14.73963,-2.50001 -8.28128,0 -13.33338,3.43752 -5.00001,3.43751 -5.00001,8.85419 0,4.84376 2.50001,7.60419 2.5,2.76043 8.80211,4.21876 3.33334,0.72917 9.47919,1.77084 6.14586,1.04167 10.4167,2.13543 8.64586,2.29167 13.02088,6.9271 4.37501,4.63543 4.37501,12.96879 z" />
    </g>
  </g>
</svg>
