<?xml version="1.0" encoding="UTF-8" standalone="no"?>
<!-- Created with Inkscape (http://www.inkscape.org/) -->

<svg
   width="174mm"
   height="44mm"
   viewBox="0 0 174 44"
   version="1.1"
   id="svg1"
   inkscape:version="1.3 (0e150ed, 2023-07-21)"
   sodipodi:docname="logo_2.svg"
   xmlns:inkscape="http://www.inkscape.org/namespaces/inkscape"
   xmlns:sodipodi="http://sodipodi.sourceforge.net/DTD/sodipodi-0.dtd"
   xmlns="http://www.w3.org/2000/svg"
   xmlns:svg="http://www.w3.org/2000/svg">
  <sodipodi:namedview
     id="namedview1"
     pagecolor="#ffffff"
     bordercolor="#000000"
     borderopacity="0.25"
     inkscape:showpageshadow="2"
     inkscape:pageopacity="0.0"
     inkscape:pagecheckerboard="0"
     inkscape:deskcolor="#d1d1d1"
     inkscape:document-units="mm"
     inkscape:zoom="0.80711364"
     inkscape:cx="382.84572"
     inkscape:cy="79.914397"
     inkscape:window-width="1536"
     inkscape:window-height="1212"
     inkscape:window-x="1016"
     inkscape:window-y="25"
     inkscape:window-maximized="0"
     inkscape:current-layer="g282" />
  <defs
     id="defs1">
    <linearGradient
       id="swatch4"
       inkscape:swatch="solid">
      <stop
         style="stop-color:#000000;stop-opacity:1;"
         offset="0"
         id="stop4" />
    </linearGradient>
    <rect
       x="98.656456"
       y="472.51251"
       width="563.38031"
       height="188.22614"
       id="rect4" />
    <linearGradient
       id="swatch3"
       inkscape:swatch="solid">
      <stop
         style="stop-color:#0a0000;stop-opacity:0.76892401;"
         offset="0"
         id="stop3" />
    </linearGradient>
  </defs>
  <g
     inkscape:label="Слой 1"
     inkscape:groupmode="layer"
     id="layer1">
    <rect
       style="fill:#0914dd;fill-opacity:1;stroke-width:0.29241"
       id="rect1-0-2"
       width="143.22189"
       height="7.132565"
       x="3.1817889"
       y="20.399643"
       inkscape:highlight-color="#000000" />
    <rect
       style="fill:#0914dd;fill-opacity:1;stroke-width:0.264583"
       id="rect1-0-2-6"
       width="117.25936"
       height="7.132565"
       x="42.991768"
       y="4.9837646"
       inkscape:highlight-color="#000000" />
    <rect
       style="fill:#0914dd;fill-opacity:1;stroke-width:0.264583"
       id="rect1-0-2-3"
       width="117.25936"
       height="7.132565"
       x="37.407104"
       y="33.032703"
       inkscape:highlight-color="#000000" />
    <path
       sodipodi:type="star"
       style="fill:#0914dd;fill-opacity:1;stroke-width:0.264583"
       id="path3"
       inkscape:flatsided="true"
       sodipodi:sides="3"
       sodipodi:cx="168.89912"
       sodipodi:cy="87.017288"
       sodipodi:r1="7.0561152"
       sodipodi:r2="5.0916724"
       sodipodi:arg1="-0.0030977663"
       sodipodi:arg2="1.0440996"
       inkscape:rounded="0"
       inkscape:randomized="0"
       d="m 175.95521,86.99543 -10.5652,6.143533 -0.0379,-12.221491 z"
       inkscape:transform-center-x="0.99856022"
       inkscape:transform-center-y="1.6316187"
       transform="translate(-11.145684,-50.483391)" />
    <path
       sodipodi:type="star"
       style="fill:#0914dd;fill-opacity:1;stroke-width:0.264583"
       id="path3-0"
       inkscape:flatsided="true"
       sodipodi:sides="3"
       sodipodi:cx="228.52737"
       sodipodi:cy="76.175789"
       sodipodi:r1="7.0561152"
       sodipodi:r2="5.0916724"
       sodipodi:arg1="-0.0030977663"
       sodipodi:arg2="1.0440996"
       inkscape:rounded="0"
       inkscape:randomized="0"
       d="m 235.58346,76.153931 -10.5652,6.143533 -0.0379,-12.221492 z"
       inkscape:transform-center-x="0.99856022"
       inkscape:transform-center-y="1.6316187"
       transform="translate(-78.903273,-52.508635)" />
    <path
       sodipodi:type="star"
       style="fill:#0914dd;fill-opacity:1;stroke-width:0.264583"
       id="path3-3"
       inkscape:flatsided="true"
       sodipodi:sides="3"
       sodipodi:cx="283.30548"
       sodipodi:cy="48.501434"
       sodipodi:r1="7.0561152"
       sodipodi:r2="5.0916724"
       sodipodi:arg1="-0.0030977663"
       sodipodi:arg2="1.0440996"
       inkscape:rounded="0"
       inkscape:randomized="0"
       d="m 290.36156,48.479576 -10.56519,6.143533 -0.0379,-12.221491 z"
       inkscape:transform-center-x="0.99856022"
       inkscape:transform-center-y="1.6316187"
       transform="translate(-119.9137,-40.337801)" />
    <rect
       style="fill:#0914dd;fill-opacity:1;stroke-width:0.119439"
       id="rect1-0-2-1-3-1"
       width="23.895674"
       height="7.132565"
       x="-27.289429"
       y="-40.725502"
       inkscape:highlight-color="#000000"
       transform="rotate(135.7)" />
    <rect
       style="fill:#0914dd;fill-opacity:1;stroke-width:0.110939"
       id="rect1-0-2-1-3-5"
       width="20.615242"
       height="7.132565"
       x="-53.696381"
       y="11.369308"
       inkscape:highlight-color="#000000"
       transform="rotate(-121.01)" />
    <g
       id="g282">
      <path
         id="text4"
         style="font-size:106.667px;font-family:'Gujarati MT';-inkscape-font-specification:'Gujarati MT';white-space:pre;fill:#dd0965;stroke-width:0.243463"
         d="M 58.347952,31.926357 H 55.649948 L 53.783081,26.70778 h -8.234675 l -1.866866,5.218577 h -2.570138 l 6.930424,-18.724002 h 3.375704 z m -5.344865,-7.356308 -3.337343,-9.192238 -3.350132,9.192238 z M 82.757876,13.202355 77.809401,31.926357 H 74.957953 L 70.955697,16.383801 67.042948,31.926357 H 64.255435 L 59.217452,13.202355 h 2.595712 l 4.002257,15.567705 3.93832,-15.567705 h 2.57014 l 3.97668,15.718603 3.976683,-15.718603 z M 100.86392,31.926357 H 98.165917 L 96.29905,26.70778 h -8.234672 l -1.866867,5.218577 h -2.57014 l 6.930424,-18.724002 h 3.375704 z m -5.344864,-7.356308 -3.337343,-9.192238 -3.35013,9.192238 z m 14.947724,7.356308 h -7.51861 v -1.911382 h 2.49341 V 15.113737 h -2.49341 v -1.911382 h 7.51861 v 1.911382 h -2.49342 v 14.901238 h 2.49342 z m 17.88867,-16.510822 h -6.80255 v 16.510822 h -2.53178 V 15.415535 h -6.80256 v -2.21318 h 16.13689 z m 16.23919,11.166495 q 0,1.094014 -0.52426,2.16288 -0.51147,1.068866 -1.4449,1.810785 -1.02295,0.804791 -2.39113,1.257488 -1.35539,0.452694 -3.27341,0.452694 -2.05867,0 -3.70816,-0.377245 -1.6367,-0.377248 -3.33734,-1.119167 v -3.118569 h 0.17901 q 1.44491,1.182039 3.33735,1.823356 1.89244,0.64132 3.55472,0.64132 2.35276,0 3.65701,-0.867667 1.31703,-0.867666 1.31703,-2.313778 0,-1.244914 -0.62655,-1.835932 -0.61376,-0.591021 -1.87965,-0.917968 -0.95901,-0.251498 -2.08424,-0.41497 -1.11245,-0.163474 -2.36555,-0.414972 -2.53178,-0.528143 -3.75931,-1.798208 -1.21474,-1.282637 -1.21474,-3.332343 0,-2.351504 2.02031,-3.847914 2.0203,-1.508986 5.12749,-1.508986 2.00752,0 3.68258,0.377245 1.67507,0.377248 2.96653,0.930542 v 2.942523 h -0.17901 q -1.08688,-0.905391 -2.86424,-1.496412 -1.76457,-0.603595 -3.61865,-0.603595 -2.0331,0 -3.27341,0.829945 -1.22753,0.829942 -1.22753,2.137729 0,1.169462 0.61377,1.835932 0.61376,0.66647 2.16096,1.018565 0.81835,0.176049 2.32719,0.427546 1.50884,0.251498 2.55735,0.515572 2.1226,0.553294 3.19669,1.672459 1.07409,1.119164 1.07409,3.131145 z" />
    </g>
  </g>
</svg>
